<?xml version="1.0" standalone="no"?>
<!DOCTYPE svg PUBLIC "-//W3C//DTD SVG 20010904//EN"
 "http://www.w3.org/TR/2001/REC-SVG-20010904/DTD/svg10.dtd">
<svg version="1.0" xmlns="http://www.w3.org/2000/svg"
 width="576.000000pt" height="460.000000pt" viewBox="0 0 576.000000 460.000000"
 preserveAspectRatio="xMidYMid meet">
<metadata>
Created by potrace 1.16, written by Peter Selinger 2001-2019
</metadata>
<g transform="translate(0.000000,460.000000) scale(0.100000,-0.100000)"
fill="#000000" stroke="none">
<path d="M140 4350 l0 -140 135 0 135 0 0 -135 0 -135 -135 0 -135 0 0 -140 0
-140 135 0 135 0 0 -130 0 -130 -135 0 -135 0 0 -145 0 -145 135 0 135 0 0
-130 0 -130 -135 0 -135 0 0 -140 0 -140 120 0 c66 0 120 -3 120 -7 0 -4 -26
-65 -57 -135 l-57 -128 -62 0 -61 0 -5 -156 c-5 -137 -8 -159 -26 -184 -15
-20 -18 -30 -10 -38 7 -7 16 -8 23 -2 7 6 20 -2 38 -25 16 -20 23 -36 17 -40
-6 -3 -10 -13 -10 -21 0 -11 9 -13 41 -8 28 5 43 3 49 -6 11 -18 100 -4 100
16 0 8 4 14 9 14 5 0 16 3 25 6 13 5 16 -3 16 -50 l0 -56 -135 0 -135 0 0
-140 0 -140 135 0 135 0 0 -130 0 -130 -135 0 -135 0 0 -145 0 -145 135 0 135
0 0 -130 0 -130 -135 0 -135 0 0 -140 0 -140 135 0 135 0 0 -140 0 -140 145 0
145 0 0 140 0 140 130 0 130 0 0 -140 0 -140 140 0 140 0 0 140 0 140 135 0
135 0 0 -140 0 -140 140 0 140 0 0 140 0 140 130 0 130 0 0 -140 0 -140 145 0
145 0 0 140 0 140 130 0 130 0 0 -140 0 -140 140 0 140 0 0 140 0 140 135 0
135 0 0 -140 0 -140 140 0 140 0 0 140 0 140 135 0 135 0 0 -140 0 -140 140 0
140 0 0 140 0 140 130 0 130 0 0 -140 0 -140 145 0 145 0 0 140 0 140 130 0
130 0 0 -140 0 -140 140 0 140 0 0 140 0 140 135 0 135 0 0 -140 0 -140 140 0
140 0 0 145 0 145 -135 0 -135 0 0 130 0 130 135 0 135 0 0 140 0 140 -135 0
-135 0 0 135 0 135 135 0 135 0 0 140 0 140 -135 0 -135 0 0 130 0 130 135 0
135 0 0 96 c0 79 2 94 13 85 10 -8 17 -7 25 1 8 8 6 17 -8 36 -12 15 -20 40
-20 63 0 26 -5 39 -16 41 -9 2 -36 50 -64 113 l-49 110 60 3 59 3 0 139 0 140
-123 0 c-123 0 -124 0 -135 25 -7 15 -12 74 -12 135 l0 110 135 0 135 0 0 140
0 140 -135 0 -135 0 0 135 0 135 135 0 135 0 0 140 0 140 -135 0 -135 0 0 130
0 130 135 0 135 0 0 145 0 145 -135 0 -135 0 0 135 0 135 -145 0 -145 0 0
-135 0 -135 -130 0 -130 0 0 135 0 135 -140 0 -140 0 0 -135 0 -135 -135 0
-135 0 0 135 0 135 -140 0 -140 0 0 -135 0 -135 -130 0 -130 0 0 135 0 135
-145 0 -145 0 0 -135 0 -135 -130 0 -130 0 0 135 0 135 -140 0 -140 0 0 -135
0 -135 -135 0 -135 0 0 135 0 135 -140 0 -140 0 0 -135 0 -135 -135 0 -135 0
0 135 0 135 -140 0 -140 0 0 -135 0 -135 -130 0 -130 0 0 135 0 135 -145 0
-145 0 0 -135 0 -135 -130 0 -130 0 0 135 0 135 -140 0 -140 0 0 -135 0 -135
-135 0 -135 0 0 135 0 135 -140 0 -140 0 0 -140z m820 -275 l0 -135 -130 0
-130 0 0 135 0 135 130 0 130 0 0 -135z m550 0 l0 -135 -135 0 -135 0 0 135 0
135 135 0 135 0 0 -135z m540 0 l0 -135 -130 0 -130 0 0 135 0 135 130 0 130
0 0 -135z m550 0 l0 -135 -120 0 c-100 0 -120 3 -120 15 0 8 -4 15 -10 15 -6
0 -10 47 -10 120 l0 120 130 0 130 0 0 -135z m550 0 l0 -135 -135 0 -135 0 0
135 0 135 135 0 135 0 0 -135z m550 0 l0 -135 -120 0 c-100 0 -120 3 -120 15
0 8 -7 15 -15 15 -12 0 -15 20 -15 120 l0 120 135 0 135 0 0 -135z m540 0 l0
-135 -130 0 -130 0 0 135 0 135 130 0 130 0 0 -135z m550 0 l0 -135 -130 0
-130 0 0 135 0 135 130 0 130 0 0 -135z m550 0 l0 -135 -135 0 -135 0 0 135 0
135 135 0 135 0 0 -135z m-4650 -275 l0 -130 -135 0 -135 0 0 130 0 130 135 0
135 0 0 -130z m540 0 l0 -130 -130 0 -130 0 0 130 0 130 130 0 130 0 0 -130z
m550 0 l0 -130 -130 0 -130 0 0 130 0 130 130 0 130 0 0 -130z m524 114 c3 -9
-8 -68 -26 -130 l-31 -114 -94 0 -93 0 0 130 0 130 119 0 c100 0 120 -3 125
-16z m576 -114 l0 -130 -104 0 c-98 0 -106 2 -135 26 -31 26 -31 26 -31 130
l0 104 135 0 135 0 0 -130z m519 127 c-2 -2 -57 -47 -121 -100 l-118 -98 0
101 0 100 122 0 c67 0 119 -1 117 -3z m571 -127 l0 -130 -130 0 -130 0 0 130
0 130 130 0 130 0 0 -130z m550 0 l0 -130 -135 0 -135 0 0 130 0 130 135 0
135 0 0 -130z m540 0 l0 -130 -130 0 -130 0 0 130 0 130 130 0 130 0 0 -130z
m-4100 -195 l0 -56 -35 7 c-30 5 -35 4 -35 -13 0 -23 -42 -48 -79 -48 -16 0
-26 -6 -27 -15 -1 -46 -34 -80 -75 -80 -5 0 -9 56 -9 130 l0 130 130 0 130 0
0 -55z m550 -75 l0 -130 -72 0 c-63 0 -78 4 -135 35 l-63 36 0 94 0 95 135 0
135 0 0 -130z m540 0 l0 -130 -130 0 -130 0 0 130 0 130 130 0 130 0 0 -130z
m1650 0 l0 -130 -54 0 c-53 0 -55 1 -65 33 -14 44 -61 215 -61 221 0 4 41 6
90 6 l90 0 0 -130z m540 0 l0 -130 -130 0 -130 0 0 130 0 130 130 0 130 0 0
-130z m550 75 c0 -30 -4 -55 -10 -55 -5 0 -10 5 -10 10 0 15 -51 12 -83 -5
-15 -8 -34 -12 -41 -9 -8 3 -17 1 -21 -5 -3 -6 -19 -11 -36 -11 -22 0 -29 -5
-29 -19 0 -10 -7 -21 -15 -25 -13 -4 -15 9 -15 84 l0 90 130 0 130 0 0 -55z
m550 -75 l0 -130 -135 0 -135 0 0 130 0 130 135 0 135 0 0 -130z m-4650 -210
c0 -57 -6 -83 -29 -135 l-30 -65 -105 0 -106 0 0 135 0 135 135 0 135 0 0 -70z
m1090 -44 l0 -115 -127 73 -128 73 -3 42 -3 41 130 0 131 0 0 -114z m370 52
c-10 -35 -28 -96 -40 -135 -13 -48 -26 -73 -35 -73 -12 0 -15 23 -15 135 l0
135 54 0 54 0 -18 -62z m1820 -56 l0 -118 -29 -17 c-22 -13 -53 -17 -130 -17
l-101 0 0 135 0 135 130 0 130 0 0 -118z m-1370 -292 l0 -130 -54 0 -53 0 -6
36 c-4 25 2 68 20 130 l27 94 33 0 33 0 0 -130z m450 120 c0 -5 14 -10 30 -10
17 0 30 5 30 10 0 6 9 10 20 10 19 0 20 -7 20 -130 l0 -130 -135 0 -135 0 0
130 0 130 85 0 c50 0 85 -4 85 -10z m2290 -121 l0 -130 -47 3 -46 3 -54 119
c-29 66 -53 123 -53 128 0 4 45 8 100 8 l100 0 0 -131z m-605 -31 l44 -98
-125 0 -125 0 3 67 3 67 55 33 c84 50 93 45 145 -69z m-3505 -243 l0 -135
-130 0 -130 0 0 128 c0 71 3 132 7 135 3 4 62 7 130 7 l123 0 0 -135z m1650 0
l0 -135 135 0 135 0 0 -135 0 -135 -135 0 -135 0 0 135 0 135 -135 0 -135 0 0
135 0 135 135 0 135 0 0 -135z m440 70 c10 -33 26 -93 38 -132 l20 -73 -109 0
-109 0 0 135 0 136 72 -3 71 -3 17 -60z m1200 -70 l0 -135 -135 0 -135 0 0
125 c0 108 2 125 18 134 9 6 70 11 135 11 l117 0 0 -135z m-2862 30 l122 -70
0 -47 0 -48 -130 0 -130 0 0 121 c0 66 4 119 8 117 5 -1 63 -34 130 -73z
m-698 -290 l0 -125 -27 0 c-16 0 -58 3 -95 7 -62 5 -68 8 -68 28 0 12 20 66
45 119 l44 96 51 0 50 0 0 -125z m550 -10 l0 -135 -135 0 -135 0 0 135 0 135
135 0 135 0 0 -135z m486 104 l54 -30 0 -105 0 -104 -130 0 -130 0 0 135 0
135 76 0 c67 0 83 -4 130 -31z m604 -104 l0 -135 -131 0 -132 0 6 83 c3 45 13
106 22 135 l17 52 109 0 109 0 0 -135z m1640 0 l0 -135 -130 0 -130 0 0 135 0
135 130 0 130 0 0 -135z m548 8 l-3 -128 -37 2 c-21 1 -38 -2 -38 -7 0 -6 -39
-10 -90 -10 l-90 0 0 135 0 135 130 0 131 0 -3 -127z m-1088 -43 l0 -100 -135
0 c-128 0 -135 1 -135 20 0 15 7 20 25 20 17 0 25 5 25 18 0 12 34 37 108 80
59 34 108 62 110 62 1 0 2 -45 2 -100z m-1920 -240 l0 -130 -130 0 -130 0 0
130 0 130 130 0 130 0 0 -130z m550 0 l0 -130 -135 0 -135 0 0 130 0 130 135
0 135 0 0 -130z m550 0 l0 -130 -135 0 -135 0 0 130 0 130 135 0 135 0 0 -130z
m540 0 l0 -130 -130 0 -130 0 0 130 0 130 130 0 130 0 0 -130z m550 0 l0 -130
-130 0 -130 0 0 130 0 130 130 0 130 0 0 -130z m550 63 l0 -68 -52 -45 c-48
-41 -51 -42 -30 -12 13 17 28 32 33 32 5 0 9 9 9 20 0 29 -29 25 -40 -6 -6
-14 -25 -46 -42 -70 -31 -43 -32 -44 -90 -44 l-58 0 0 130 0 130 135 0 135 0
0 -67z m-2470 -273 l0 -70 -30 0 c-16 0 -30 5 -30 10 0 6 -13 10 -30 10 -16 0
-30 -4 -30 -10 0 -13 -76 -13 -100 0 -15 8 -21 6 -29 -7 -8 -14 -10 2 -11 60
l0 77 130 0 130 0 0 -70z m550 -63 l0 -133 -62 -2 c-53 -2 -74 3 -130 30 l-68
32 0 103 0 103 130 0 130 0 0 -133z m550 -2 l0 -135 -135 0 -135 0 0 135 0
135 135 0 135 0 0 -135z m550 64 l0 -70 -97 3 c-54 2 -105 6 -113 8 -10 3 -15
-2 -15 -15 0 -17 6 -20 40 -18 l40 2 -44 -14 c-24 -8 -52 -17 -62 -20 -18 -6
-19 1 -19 94 l0 101 135 0 135 0 0 -71z m540 -16 c0 -49 -4 -93 -8 -99 -4 -7
-18 -13 -32 -15 -29 -3 -100 19 -100 31 0 4 -22 8 -49 8 -27 0 -54 3 -60 6 -6
4 -11 39 -11 82 l0 74 130 0 130 0 0 -87z m-3397 -58 c98 -33 117 -48 117 -90
l0 -35 -130 0 -130 0 0 79 0 80 38 -6 c20 -3 68 -16 105 -28z m4268 15 c16 0
29 4 29 8 0 5 27 4 60 -1 42 -7 60 -14 60 -25 0 -11 9 -13 40 -9 l40 5 0 -59
0 -59 -135 0 -135 0 1 83 c0 45 3 76 6 70 2 -7 18 -13 34 -13z m-4421 -280 l0
-130 -135 0 -135 0 0 130 0 130 135 0 135 0 0 -130z m394 105 c9 -13 16 -36
16 -50 0 -18 5 -25 19 -25 21 0 111 -117 111 -144 0 -14 -19 -16 -130 -16
l-130 0 0 130 0 130 49 0 c41 0 51 -4 65 -25z m1796 -105 l0 -130 -55 0 c-52
0 -55 1 -55 25 0 18 -5 25 -20 25 -29 0 -140 144 -140 181 l0 29 135 0 135 0
0 -130z m2180 0 l0 -130 -130 0 -130 0 0 130 0 130 130 0 130 0 0 -130z
m-4100 -270 l0 -130 -130 0 -130 0 0 130 0 130 130 0 130 0 0 -130z m375 19
c108 -154 108 -149 -4 -149 l-91 0 0 130 c0 72 4 130 9 130 4 0 43 -50 86
-111z m3455 -19 l0 -130 -130 0 -130 0 0 130 0 130 130 0 130 0 0 -130z m550
0 l0 -130 -135 0 -135 0 0 130 0 130 135 0 135 0 0 -130z m-3410 100 c0 -5 14
-10 30 -10 17 0 30 5 30 10 0 6 14 10 30 10 l30 0 0 -120 0 -120 -130 0 -130
0 0 109 0 109 38 10 c50 13 102 14 102 2z m1770 -115 l0 -115 -135 0 -135 0 0
59 0 59 51 32 c56 36 161 79 197 79 22 1 22 -1 22 -114z m353 69 c79 -41 117
-73 117 -100 0 -17 6 -24 19 -24 35 0 51 -12 51 -36 l0 -24 -130 0 -130 0 0
105 c0 66 4 105 10 105 6 0 34 -12 63 -26z m-3363 -329 l0 -135 -135 0 -135 0
0 135 0 135 135 0 135 0 0 -135z m540 0 l0 -135 -130 0 -130 0 0 135 0 135
130 0 130 0 0 -135z m550 0 l0 -135 -130 0 -130 0 0 135 0 135 130 0 130 0 0
-135z m550 0 l0 -135 -135 0 -135 0 0 135 0 135 135 0 135 0 0 -135z m1090 0
l0 -135 -130 0 -130 0 0 33 c0 26 17 55 78 135 l77 101 53 0 52 1 0 -135z
m550 0 l0 -135 -130 0 -130 0 0 135 0 135 130 0 130 0 0 -135z m300 120 c0
-10 11 -15 35 -15 24 0 35 5 35 15 0 12 17 15 90 15 l90 0 0 -135 0 -135 -135
0 -135 0 0 135 c0 83 4 135 10 135 6 0 10 -7 10 -15z m790 -120 l0 -135 -130
0 -130 0 0 135 0 135 130 0 130 0 0 -135z m-4100 -275 l0 -130 -130 0 -130 0
0 130 0 130 130 0 130 0 0 -130z m550 0 l0 -130 -135 0 -135 0 0 130 0 130
135 0 135 0 0 -130z m540 0 l0 -130 -130 0 -130 0 0 130 0 130 130 0 130 0 0
-130z m550 0 l0 -130 -130 0 -130 0 0 130 0 130 130 0 130 0 0 -130z m550 0
l0 -130 -120 0 c-66 0 -120 4 -120 9 0 4 19 33 42 62 146 186 149 189 173 189
l25 0 0 -130z m550 0 l0 -130 -135 0 -135 0 0 130 0 130 135 0 135 0 0 -130z
m540 0 l0 -130 -130 0 -130 0 0 130 0 130 130 0 130 0 0 -130z m550 0 l0 -130
-130 0 -130 0 0 130 0 130 130 0 130 0 0 -130z m550 0 l0 -130 -135 0 -135 0
0 130 0 130 135 0 135 0 0 -130z m-4650 -270 l0 -130 -135 0 -135 0 0 130 0
130 135 0 135 0 0 -130z m540 0 l0 -130 -130 0 -130 0 0 130 0 130 130 0 130
0 0 -130z m550 0 l0 -130 -130 0 -130 0 0 130 0 130 130 0 130 0 0 -130z m550
0 l0 -130 -135 0 -135 0 0 130 0 130 135 0 135 0 0 -130z m520 115 c0 -8 7
-15 15 -15 12 0 15 -19 15 -115 l0 -115 -135 0 -135 0 0 130 0 130 120 0 c100
0 120 -2 120 -15z m570 -115 l0 -130 -130 0 -130 0 0 130 0 130 130 0 130 0 0
-130z m550 0 l0 -130 -130 0 -130 0 0 130 0 130 130 0 130 0 0 -130z m550 0
l0 -130 -135 0 -135 0 0 130 0 130 135 0 135 0 0 -130z m540 0 l0 -130 -130 0
-130 0 0 130 0 130 130 0 130 0 0 -130z"/>
</g>
</svg>
